# Blender 5.1.2
# www.blender.org
mtllib trampy.mtl
o trampoline
v -3.056464 0.930087 1.536053
v -3.056464 0.608727 1.536053
v -1.761668 0.930087 2.676297
v -1.761668 0.608727 2.676297
v 0.005855 0.930087 3.093649
v 0.005855 0.608727 3.093649
v 1.774095 0.930087 2.676297
v 1.774095 0.608727 2.676297
v 3.068175 0.930087 1.536053
v 3.068175 0.608727 1.536053
v 0.005855 0.930087 -3.136799
v -3.056464 0.930087 -1.579203
v -3.529907 0.930087 -0.021605
v -1.761668 0.930087 -2.719446
v -1.761668 0.930087 2.676297
v -3.056464 0.930087 1.536053
v 0.005855 0.930087 3.093649
v 3.542313 0.930087 -0.021605
v 3.068175 0.930087 -1.579203
v 1.774095 0.930087 -2.719446
v 3.068175 0.930087 1.536053
v 1.774095 0.930087 2.676297
v -3.056464 0.608727 -1.579203
v -3.529907 0.608727 -0.021605
v -3.529907 0.930087 -0.021605
v -3.056464 0.930087 1.536053
v -3.056464 0.930087 -1.579203
v -3.056464 0.608727 1.536053
v -1.761668 0.608727 -2.719446
v -1.761668 0.930087 -2.719446
v -1.761668 0.608727 -2.719446
v -1.761668 0.930087 -2.719446
v 0.005855 0.608727 -3.136799
v 0.005855 0.930087 -3.136799
v 1.774095 0.608727 -2.719446
v 1.774095 0.930087 -2.719446
v 0.005855 0.608727 -3.136799
v 3.068175 0.608727 -1.579203
v 3.542313 0.608727 -0.021605
v 1.774095 0.608727 -2.719446
v 1.774095 0.608727 2.676297
v 3.068175 0.608727 1.536053
v 0.005855 0.608727 3.093649
v -3.056464 0.608727 -1.579203
v -1.761668 0.608727 -2.719446
v -3.529907 0.608727 -0.021605
v -3.056464 0.608727 1.536053
v -1.761668 0.608727 2.676297
v 1.774095 0.608727 -2.719446
v 1.774095 0.930087 -2.719446
v 3.068175 0.608727 -1.579203
v 3.068175 0.930087 1.536053
v 3.068175 0.930087 -1.579203
v 3.068175 0.608727 1.536053
v 3.542313 0.608727 -0.021605
v 3.542313 0.930087 -0.021605
v -3.396034 -0.392493 -1.051065
v -3.391190 0.521977 -1.045410
v -3.467099 -0.387693 -1.024312
v -3.467815 0.521977 -1.017441
v -3.343588 -0.772533 -1.097276
v -3.217972 -0.843523 -1.245940
v -3.538880 -0.385943 -1.050214
v -3.544398 0.521967 -1.045410
v -3.471943 -0.865303 -1.109071
v -3.403616 -0.837653 -1.078974
v -3.191054 -0.946213 -1.231773
v -3.206935 -1.051673 -1.252810
v -3.391190 0.521977 1.137427
v -3.467099 -0.397663 1.158464
v -3.396708 -0.399673 1.132562
v -3.467815 0.521977 1.165396
v -3.538206 -0.392493 1.133109
v -3.544398 0.521977 1.137365
v -3.425016 -0.709823 1.193913
v -3.485760 -0.772533 1.179502
v -3.360817 -0.684163 1.163937
v -3.316670 -0.843523 1.290103
v -1.482842 -0.843523 2.905949
v -3.333225 -0.946213 1.313817
v -3.309046 -1.051673 1.299588
v -1.509760 -0.946213 2.920116
v -1.493205 -1.051673 2.899079
v -1.296523 -0.837653 3.072855
v -1.357226 -0.772533 3.054552
v -1.228197 -0.865303 3.042758
v -1.233715 -0.387693 3.127578
v -1.161218 -0.385943 3.101675
v -1.155700 0.521967 3.106418
v -1.232999 0.521977 3.134449
v -1.309624 0.521977 3.106418
v -1.304780 -0.392493 3.100763
v 1.321335 0.521977 -3.014464
v 1.316491 -0.399673 -3.019266
v 1.245405 -0.397663 -2.993365
v 1.244710 0.521977 -2.986433
v 1.351686 -0.684163 -2.987954
v 1.287509 -0.709823 -2.957977
v 1.175014 -0.392493 -3.018720
v 1.168105 0.521977 -3.014464
v 1.227460 -0.772533 -2.972388
v 1.395875 -0.843523 -2.861725
v 1.379994 -0.946213 -2.838012
v 3.219320 -1.051673 -1.252810
v 3.202743 -0.946213 -1.231773
v 3.416022 -0.837653 -1.078974
v 3.355278 -0.772533 -1.097276
v 3.484349 -0.865303 -1.109071
v 3.479505 -0.387693 -1.024312
v 3.408419 -0.392493 -1.051065
v 3.551286 -0.385943 -1.050214
v 3.403595 0.521977 -1.045410
v 3.480200 0.521977 -1.017441
v 3.556804 0.521967 -1.045410
v 1.316491 -0.392493 3.100763
v 1.321335 0.521977 3.106418
v 1.246100 -0.387693 3.127578
v 1.244710 0.521977 3.134449
v 1.369631 -0.772533 3.054552
v 1.173624 -0.385943 3.101675
v 1.168105 0.521967 3.106418
v 1.240582 -0.865303 3.042758
v 1.495248 -0.843523 2.905949
v 3.329055 -0.843523 1.290103
v 3.373223 -0.684163 1.163937
v 3.403595 0.521977 1.137427
v 3.409114 -0.399673 1.132562
v 3.556804 0.521977 1.137365
v 3.550591 -0.392493 1.133109
v 3.480200 0.521977 1.165396
v 3.498145 -0.772533 1.179502
v 3.344915 -0.946213 1.313817
v 3.479505 -0.397663 1.158464
v 3.437401 -0.709823 1.193913
v 1.522166 -0.946213 2.920116
v 1.505611 -1.051673 2.899079
v 1.308908 -0.837653 3.072855
v -1.367588 -0.946213 -2.838012
v -1.383469 -0.843523 -2.861725
v -1.215054 -0.772533 -2.972388
v -1.155700 0.521977 -3.014464
v -1.162608 -0.392493 -3.018720
v -1.232999 0.521977 -2.986433
v -1.309624 0.521977 -3.014464
v -1.232999 -0.397663 -2.993365
v -1.304106 -0.399673 -3.019266
v -1.275798 -0.709823 -2.957977
v -1.339280 -0.684163 -2.987954
v -3.425016 -0.709823 -1.237063
v -3.326991 -0.709823 -1.150600
v -3.360817 -0.684163 -1.207087
v -3.217972 -0.843523 -1.245940
v -3.316670 -0.843523 -1.333253
v -3.425016 -0.709823 1.193913
v -3.326991 -0.709823 1.107450
v -3.360817 -0.684163 1.163937
v -3.217972 -0.843523 1.202790
v -3.316670 -0.843523 1.290103
v -3.269743 -0.801423 1.244076
v -1.383469 -0.843523 2.818575
v -1.430397 -0.801423 2.864605
v -1.482842 -0.843523 2.905949
v -1.275798 -0.709823 2.914828
v -1.373823 -0.709823 3.001228
v -1.339280 -0.684163 2.944803
v 1.385513 -0.709823 -3.044379
v 1.351686 -0.684163 -2.987954
v 1.287509 -0.709823 -2.957977
v 1.495248 -0.843523 -2.949100
v 1.395875 -0.843523 -2.861725
v 1.442803 -0.801423 -2.907753
v 3.329055 -0.843523 -1.333253
v 3.282128 -0.801423 -1.287225
v 3.437401 -0.709823 -1.237063
v 3.229661 -0.843523 -1.245940
v 3.373223 -0.684163 -1.207087
v 3.339397 -0.709823 -1.150600
v 1.385513 -0.709823 3.001228
v 1.287509 -0.709823 2.914828
v 1.351686 -0.684163 2.944803
v 1.395875 -0.843523 2.818575
v 1.495248 -0.843523 2.905949
v 1.442803 -0.801423 2.864605
v 3.229661 -0.843523 1.202790
v 3.282128 -0.801423 1.244076
v 3.329055 -0.843523 1.290103
v 3.373223 -0.684163 1.163937
v 3.339397 -0.709823 1.107450
v 3.437401 -0.709823 1.193913
v -1.383469 -0.843523 -2.861725
v -1.373823 -0.709823 -3.044379
v -1.275798 -0.709823 -2.957977
v -1.339280 -0.684163 -2.987954
v -1.482842 -0.843523 -2.949100
v -1.430397 -0.801423 -2.907753
v -3.269743 -0.801423 -1.287225
v -3.538206 -0.392493 -1.176259
v -3.544398 0.521977 -1.180515
v -3.568578 -0.387693 -1.113753
v -3.576160 0.521977 -1.112963
v -3.538880 -0.385943 -1.050214
v -3.544398 0.521967 -1.045410
v -3.471943 -0.865303 -1.109071
v -3.506444 -0.837653 -1.169449
v -3.485760 -0.772533 -1.222652
v -3.333225 -0.946213 -1.357027
v -3.309046 -1.051673 -1.342738
v -1.509760 -0.946213 -2.963268
v -1.493205 -1.051673 -2.942229
v -3.538206 -0.392493 1.133109
v -3.544398 0.521977 1.137365
v -3.568578 -0.387693 1.070543
v -3.576160 0.521977 1.069813
v -3.485760 -0.772533 1.179502
v -3.538880 -0.385943 1.007064
v -3.544398 0.521967 1.002260
v -3.471943 -0.865303 1.065921
v -1.482842 -0.843523 2.905949
v -3.333225 -0.946213 1.313817
v -3.506444 -0.837653 1.126299
v -3.309046 -1.051673 1.299588
v -1.509760 -0.946213 2.920116
v -1.357226 -0.772533 3.054552
v -1.309624 0.521977 3.106418
v -1.309624 0.521977 2.971314
v -1.304780 -0.392493 3.100763
v -1.341387 0.521977 3.038866
v -1.333088 -0.397663 3.038318
v -1.304106 -0.399673 2.976117
v -1.373823 -0.709823 3.001228
v -1.339280 -0.684163 2.944803
v 1.175014 -0.392493 -3.018720
v 1.168105 0.521977 -3.014464
v 1.144642 -0.387693 -3.081286
v 1.136364 0.521977 -3.082016
v 1.227460 -0.772533 -2.972388
v 1.395875 -0.843523 -2.861725
v 1.379994 -0.946213 -2.838012
v 1.173624 -0.385943 -3.144826
v 1.168105 0.521967 -3.149568
v 1.240582 -0.865303 -3.085968
v 1.206060 -0.837653 -3.025590
v 1.403458 -1.051673 -2.852301
v 3.219320 -1.051673 -1.252810
v 3.229661 -0.843523 -1.245940
v 3.373223 -0.684163 -1.207087
v 3.202743 -0.946213 -1.231773
v 3.355278 -0.772533 -1.097276
v 3.339397 -0.709823 -1.150600
v 3.409114 -0.399673 -1.175712
v 3.408419 -0.392493 -1.051065
v 3.403595 0.521977 -1.045410
v 3.371833 0.521977 -1.112963
v 3.379437 -0.397663 -1.113511
v 3.403595 0.521977 -1.180577
v 1.173624 -0.385943 3.101675
v 1.168105 0.521967 3.106418
v 1.136364 0.521977 3.038866
v 1.175014 -0.392493 2.975570
v 1.144642 -0.387693 3.038135
v 1.168105 0.521977 2.971314
v 1.227460 -0.772533 2.929236
v 1.240582 -0.865303 3.042758
v 1.206060 -0.837653 2.982440
v 1.379994 -0.946213 2.794863
v 3.202743 -0.946213 1.188562
v 1.403458 -1.051673 2.809151
v 3.229661 -0.843523 1.202790
v 3.373223 -0.684163 1.163937
v 3.355278 -0.772533 1.054126
v 3.339397 -0.709823 1.107450
v 3.408419 -0.392493 1.007915
v 3.403595 0.521977 1.002260
v 3.371833 0.521977 1.069813
v 3.379437 -0.397663 1.070361
v 3.403595 0.521977 1.137427
v 3.409114 -0.399673 1.132562
v -1.357226 -0.772533 -3.097703
v -1.309624 0.521977 -3.149629
v -1.304780 -0.392493 -3.143914
v -1.341387 0.521977 -3.082016
v -1.333088 -0.397663 -3.081468
v -1.309624 0.521977 -3.014464
v -1.373823 -0.709823 -3.044379
v -1.304106 -0.399673 -3.019266
v -1.339280 -0.684163 -2.987954
v -1.482842 -0.843523 -2.949100
v -3.467099 -0.397663 -1.201614
v -3.391190 0.521977 -1.180577
v -3.396708 -0.399673 -1.175712
v -3.467815 0.521977 -1.208546
v -3.538206 -0.392493 -1.176259
v -3.544398 0.521977 -1.180515
v -3.425016 -0.709823 -1.237063
v -3.360817 -0.684163 -1.207087
v -3.485760 -0.772533 -1.222652
v -3.316670 -0.843523 -1.333253
v -3.333225 -0.946213 -1.357027
v -3.309046 -1.051673 -1.342738
v -1.509760 -0.946213 -2.963268
v -1.493205 -1.051673 -2.942229
v -3.538880 -0.385943 1.007064
v -3.544398 0.521967 1.002260
v -3.467815 0.521977 0.974291
v -3.396034 -0.392493 1.007915
v -3.467099 -0.387693 0.981162
v -3.391190 0.521977 1.002260
v -3.343588 -0.772533 1.054126
v -3.471943 -0.865303 1.065921
v -3.403616 -0.837653 1.035824
v -3.217972 -0.843523 1.202790
v -3.191054 -0.946213 1.188562
v -1.383469 -0.843523 2.818575
v -3.206935 -1.051673 1.209600
v -1.391768 -1.051673 2.809151
v -1.367588 -0.946213 2.794863
v -1.215054 -0.772533 2.929236
v -1.275798 -0.709823 2.914828
v -1.162608 -0.392493 2.975570
v -1.155700 0.521977 2.971314
v -1.232999 0.521977 2.943283
v -1.232999 -0.397663 2.950214
v -1.309624 0.521977 2.971314
v -1.304106 -0.399673 2.976117
v -1.339280 -0.684163 2.944803
v 1.316491 -0.392493 -3.143914
v 1.321335 0.521977 -3.149629
v 1.246100 -0.387693 -3.170728
v 1.244710 0.521977 -3.177598
v 1.369631 -0.772533 -3.097703
v 1.173624 -0.385943 -3.144826
v 1.168105 0.521967 -3.149568
v 1.240582 -0.865303 -3.085968
v 1.308908 -0.837653 -3.116005
v 1.522166 -0.946213 -2.963268
v 1.505611 -1.051673 -2.942229
v 3.344915 -0.946213 -1.357027
v 3.329055 -0.843523 -1.333253
v 3.498145 -0.772533 -1.222652
v 3.437401 -0.709823 -1.237063
v 3.373223 -0.684163 -1.207087
v 3.409114 -0.399673 -1.175712
v 3.556804 0.521977 -1.180515
v 3.403595 0.521977 -1.180577
v 3.550591 -0.392493 -1.176259
v 3.480200 0.521977 -1.208546
v 3.479505 -0.397663 -1.201614
v 1.321335 0.521977 2.971314
v 1.316491 -0.399673 2.976117
v 1.245405 -0.397663 2.950214
v 1.244710 0.521977 2.943283
v 1.175014 -0.392493 2.975570
v 1.168105 0.521977 2.971314
v 1.287509 -0.709823 2.914828
v 1.227460 -0.772533 2.929236
v 1.351686 -0.684163 2.944803
v 1.395875 -0.843523 2.818575
v 1.379994 -0.946213 2.794863
v 3.202743 -0.946213 1.188562
v 1.403458 -1.051673 2.809151
v 3.229661 -0.843523 1.202790
v 3.219320 -1.051673 1.209600
v 3.416022 -0.837653 1.035824
v 3.355278 -0.772533 1.054126
v 3.479505 -0.387693 0.981162
v 3.408419 -0.392493 1.007915
v 3.484349 -0.865303 1.065921
v 3.403595 0.521977 1.002260
v 3.480200 0.521977 0.974291
v 3.551286 -0.385943 1.007064
v 3.556804 0.521967 1.002260
v -1.296523 -0.837653 -3.116005
v -1.357226 -0.772533 -3.097703
v -1.228197 -0.865303 -3.085968
v -1.233715 -0.387693 -3.170728
v -1.161218 -0.385943 -3.144826
v -1.232999 0.521977 -3.177598
v -1.155700 0.521967 -3.149568
v -1.309624 0.521977 -3.149629
v -1.304780 -0.392493 -3.143914
v -1.482842 -0.843523 -2.949100
v -3.471943 -0.865303 -1.109071
v -3.403616 -0.837653 -1.078974
v -3.256600 -1.096093 -1.298778
v -3.206935 -1.051673 -1.252810
v -3.506444 -0.837653 -1.169449
v -3.309046 -1.051673 -1.342738
v -1.493205 -1.051673 -2.942229
v -1.443498 -1.096093 -2.896202
v -3.471943 -0.865303 1.065921
v -3.403616 -0.837653 1.035824
v -3.506444 -0.837653 1.126299
v -3.256600 -1.096093 1.255628
v -3.309046 -1.051673 1.299588
v -3.206935 -1.051673 1.209600
v -1.443498 -1.096093 2.853051
v -1.493205 -1.051673 2.899079
v -1.296523 -0.837653 3.072855
v -1.391768 -1.051673 2.809151
v -1.194370 -0.837653 2.982440
v -1.228197 -0.865303 3.042758
v 1.240582 -0.865303 -3.085968
v 1.206060 -0.837653 -3.025590
v 1.308908 -0.837653 -3.116005
v 1.455903 -1.096093 -2.896202
v 1.403458 -1.051673 -2.852301
v 1.505611 -1.051673 -2.942229
v 3.219320 -1.051673 -1.252810
v 3.269006 -1.096093 -1.298778
v 3.321452 -1.051673 -1.342738
v 3.518849 -0.837653 -1.169449
v 3.416022 -0.837653 -1.078974
v 3.484349 -0.865303 -1.109071
v 1.240582 -0.865303 3.042758
v 1.206060 -0.837653 2.982440
v 1.403458 -1.051673 2.809151
v 1.455903 -1.096093 2.853051
v 3.219320 -1.051673 1.209600
v 3.416022 -0.837653 1.035824
v 3.269006 -1.096093 1.255628
v 3.484349 -0.865303 1.065921
v 3.321452 -1.051673 1.299588
v 3.518849 -0.837653 1.126299
v 1.505611 -1.051673 2.899079
v 1.308908 -0.837653 3.072855
v -1.296523 -0.837653 -3.116005
v -1.391768 -1.051673 -2.852301
v -1.194370 -0.837653 -3.025590
v -1.228197 -0.865303 -3.085968
v -3.391190 0.521977 -1.180577
v -3.396708 -0.399673 -1.175712
v -3.367052 -0.397663 -1.113511
v -3.359427 0.521977 -1.112963
v -3.396034 -0.392493 -1.051065
v -3.391190 0.521977 -1.045410
v -3.326991 -0.709823 -1.150600
v -3.360817 -0.684163 -1.207087
v -3.343588 -0.772533 -1.097276
v -3.217972 -0.843523 -1.245940
v -3.191054 -0.946213 -1.231773
v -3.206935 -1.051673 -1.252810
v -3.391190 0.521977 1.137427
v -3.396708 -0.399673 1.132562
v -3.367052 -0.397663 1.070361
v -3.359427 0.521977 1.069813
v -3.396034 -0.392493 1.007915
v -3.391190 0.521977 1.002260
v -3.326991 -0.709823 1.107450
v -3.343588 -0.772533 1.054126
v -3.360817 -0.684163 1.163937
v -3.217972 -0.843523 1.202790
v -3.191054 -0.946213 1.188562
v -1.391768 -1.051673 2.809151
v -1.367588 -0.946213 2.794863
v -1.194370 -0.837653 2.982440
v -1.228197 -0.865303 3.042758
v -1.132236 -0.387693 3.038135
v -1.215054 -0.772533 2.929236
v -1.161218 -0.385943 3.101675
v -1.162608 -0.392493 2.975570
v -1.123979 0.521977 3.038866
v -1.155700 0.521967 3.106418
v -1.155700 0.521977 2.971314
v 1.321335 0.521977 -3.014464
v 1.345494 -0.397663 -3.081468
v 1.353771 0.521977 -3.082016
v 1.316491 -0.392493 -3.143914
v 1.321335 0.521977 -3.149629
v 1.316491 -0.399673 -3.019266
v 1.385513 -0.709823 -3.044379
v 1.369631 -0.772533 -3.097703
v 1.351686 -0.684163 -2.987954
v 1.495248 -0.843523 -2.949100
v 1.522166 -0.946213 -2.963268
v 1.505611 -1.051673 -2.942229
v 3.321452 -1.051673 -1.342738
v 3.344915 -0.946213 -1.357027
v 3.518849 -0.837653 -1.169449
v 3.329055 -0.843523 -1.333253
v 3.498145 -0.772533 -1.222652
v 3.484349 -0.865303 -1.109071
v 3.580963 -0.387693 -1.113753
v 3.551286 -0.385943 -1.050214
v 3.556804 0.521967 -1.045410
v 3.588566 0.521977 -1.112963
v 3.556804 0.521977 -1.180515
v 3.550591 -0.392493 -1.176259
v 1.321335 0.521977 2.971314
v 1.345494 -0.397663 3.038318
v 1.316491 -0.399673 2.976117
v 1.353771 0.521977 3.038866
v 1.316491 -0.392493 3.100763
v 1.321335 0.521977 3.106418
v 1.385513 -0.709823 3.001228
v 1.369631 -0.772533 3.054552
v 1.351686 -0.684163 2.944803
v 1.495248 -0.843523 2.905949
v 3.484349 -0.865303 1.065921
v 3.321452 -1.051673 1.299588
v 3.551286 -0.385943 1.007064
v 3.556804 0.521967 1.002260
v 3.588566 0.521977 1.069813
v 3.580963 -0.387693 1.070543
v 3.556804 0.521977 1.137365
v 3.518849 -0.837653 1.126299
v 3.550591 -0.392493 1.133109
v 3.498145 -0.772533 1.179502
v 3.344915 -0.946213 1.313817
v 1.522166 -0.946213 2.920116
v 1.505611 -1.051673 2.899079
v -1.391768 -1.051673 -2.852301
v -1.367588 -0.946213 -2.838012
v -1.194370 -0.837653 -3.025590
v -1.228197 -0.865303 -3.085968
v -1.215054 -0.772533 -2.972388
v -1.132236 -0.387693 -3.081286
v -1.161218 -0.385943 -3.144826
v -1.155700 0.521967 -3.149568
v -1.123979 0.521977 -3.082016
v -1.155700 0.521977 -3.014464
v -1.162608 -0.392493 -3.018720
v -3.605859 0.644387 1.815443
v -3.605859 0.894067 1.815443
v -2.079164 0.894067 3.160290
v 3.617548 0.894067 1.815443
v 3.617548 0.644387 1.815443
v 2.091570 0.644387 3.160290
v 2.091570 0.894067 3.160290
v 0.005855 0.644387 3.652493
v 0.005855 0.894067 3.652493
v -2.079164 0.644387 3.160290
v -2.997110 0.496657 -1.549287
v -2.997110 1.041797 -1.549288
v -1.727884 0.496657 -2.667580
v -1.727884 1.041797 -2.667580
v 0.005855 0.496657 -3.076969
v 0.005855 1.041797 -3.076969
v 1.740268 0.496657 -2.667580
v 1.740268 1.041797 -2.667580
v 3.009495 1.041797 -1.549288
v 3.009495 0.496657 -1.549287
v -1.727884 1.041797 -2.667580
v -3.507834 1.048847 -1.809039
v -2.997110 1.041797 -1.549288
v -2.022590 1.048847 -3.117524
v -4.051710 1.048847 -0.021605
v 0.005855 1.048847 -3.596472
v -3.462296 1.041797 -0.021605
v 0.005855 1.041797 -3.076969
v -2.997110 1.041797 1.506137
v 1.740268 1.041797 -2.667580
v -3.507834 1.048847 1.765889
v 2.034975 1.048847 -3.117524
v -2.022590 1.048847 3.074374
v 3.009495 1.041797 -1.549288
v -1.727884 1.041797 2.624432
v 3.520239 1.048847 -1.809039
v 0.005855 1.048847 3.553322
v 4.064095 1.048847 -0.021605
v 0.005855 1.041797 3.033819
v 3.473986 1.041797 -0.021605
v 1.740268 1.041797 2.624432
v 3.009495 1.041797 1.506137
v 2.034975 1.048847 3.074374
v 3.520239 1.048847 1.765889
v -3.605859 0.894067 1.815443
v -4.164184 0.894067 -0.021605
v -3.605859 0.894067 -1.858593
v -4.051710 1.048847 -0.021605
v -3.507834 1.048847 -1.809039
v -3.507834 1.048847 1.765889
v -2.022590 1.048847 -3.117524
v -2.079164 0.894067 3.160290
v -2.022590 1.048847 3.074374
v 0.005855 1.048847 3.553322
v -2.079164 0.894067 -3.203439
v 0.005855 1.048847 -3.596472
v 0.005855 0.894067 -3.695642
v 2.091570 0.894067 -3.203439
v 2.034975 1.048847 -3.117524
v 3.520239 1.048847 -1.809039
v 3.617548 0.894067 -1.858593
v 4.064095 1.048847 -0.021605
v 4.176589 0.894067 -0.021605
v 3.617548 0.894067 1.815443
v 3.520239 1.048847 1.765889
v 2.034975 1.048847 3.074374
v 2.091570 0.894067 3.160290
v 0.005855 0.894067 3.652493
v -4.164184 0.644387 -0.021605
v -3.605859 0.644387 1.815443
v -3.605859 0.894067 1.815443
v -3.605859 0.644387 -1.858593
v -4.164184 0.894067 -0.021605
v -3.605859 0.894067 -1.858593
v 3.009495 1.041797 1.506137
v 3.009495 0.496657 1.506137
v 3.473986 1.041797 -0.021605
v 3.473986 0.496657 -0.021605
v 3.009495 1.041797 -1.549288
v 3.009495 0.496657 -1.549287
v -3.605859 0.644387 -1.858593
v -2.079164 0.644387 -3.203439
v -3.605859 0.894067 -1.858593
v -2.079164 0.894067 -3.203439
v 0.005855 0.644387 -3.695642
v 0.005855 0.894067 -3.695642
v 2.091570 0.644387 -3.203439
v 2.091570 0.894067 -3.203439
v 3.617548 0.644387 -1.858593
v 3.617548 0.894067 -1.858593
v -1.727884 1.041797 2.624432
v -2.997110 0.496657 1.506137
v -2.997110 1.041797 1.506137
v -1.727884 0.496657 2.624432
v 0.005855 1.041797 3.033819
v 0.005855 0.496657 3.033819
v 1.740268 1.041797 2.624432
v 1.740268 0.496657 2.624432
v 3.009495 1.041797 1.506137
v 3.009495 0.496657 1.506137
v -3.507834 0.489607 -1.809039
v -2.022590 0.489607 -3.117524
v -2.997110 0.496657 -1.549287
v -4.051710 0.489607 -0.021605
v -1.727884 0.496657 -2.667580
v -3.462296 0.496657 -0.021605
v 0.005855 0.489607 -3.596472
v -2.997110 0.496657 1.506137
v 0.005855 0.496657 -3.076969
v -3.507834 0.489607 1.765889
v 1.740268 0.496657 -2.667580
v -1.727884 0.496657 2.624432
v 2.034975 0.489607 -3.117524
v -2.022590 0.489607 3.074374
v 3.520239 0.489607 -1.809039
v 0.005855 0.489607 3.553322
v 3.009495 0.496657 -1.549287
v 0.005855 0.496657 3.033819
v 4.064095 0.489607 -0.021605
v 1.740268 0.496657 2.624432
v 3.473986 0.496657 -0.021605
v 2.034975 0.489607 3.074374
v 3.009495 0.496657 1.506137
v 3.520239 0.489607 1.765889
v -4.164184 0.644387 -0.021605
v -3.605859 0.644387 1.815443
v -4.051710 0.489607 -0.021605
v -3.507834 0.489607 1.765889
v -2.022590 0.489607 3.074374
v -3.605859 0.644387 -1.858593
v -3.507834 0.489607 -1.809039
v -2.079164 0.644387 -3.203439
v -2.022590 0.489607 -3.117524
v 0.005855 0.489607 -3.596472
v 0.005855 0.644387 -3.695642
v 2.091570 0.644387 -3.203439
v 2.034975 0.489607 -3.117524
v 3.617548 0.644387 -1.858593
v 3.520239 0.489607 -1.809039
v 4.064095 0.489607 -0.021605
v 4.176589 0.644387 -0.021605
v 3.617548 0.644387 1.815443
v 3.520239 0.489607 1.765889
v 2.091570 0.644387 3.160290
v 2.034975 0.489607 3.074374
v 0.005855 0.489607 3.553322
v 0.005855 0.644387 3.652493
v -2.079164 0.644387 3.160290
v 3.617548 0.644387 -1.858593
v 3.617548 0.894067 -1.858593
v 4.176589 0.644387 -0.021605
v 4.176589 0.894067 -0.021605
v 3.617548 0.894067 1.815443
v 3.617548 0.644387 1.815443
v -2.997110 0.496657 1.506137
v -2.997110 1.041797 1.506137
v -3.462296 0.496657 -0.021605
v -3.462296 1.041797 -0.021605
v -2.997110 0.496657 -1.549287
v -2.997110 1.041797 -1.549288
v -0.001748 0.863447 3.697426
v -0.001748 0.903927 3.637171
v -0.006572 0.886507 3.638142
v -0.006572 0.851277 3.690068
v -0.001748 0.869757 3.639358
v -0.001748 0.766217 3.721931
v -0.001053 0.839537 3.682894
v -0.006572 0.766217 3.711472
v -0.001053 0.766217 3.701378
v -0.001053 0.692897 3.682894
v -0.006572 0.681157 3.690068
v -0.001748 0.662677 3.639358
v -0.006572 0.645927 3.638142
v -0.001748 0.668988 3.697426
v -0.001748 0.628507 3.637171
v 0.021737 0.863447 3.697426
v 0.009984 0.911457 3.636867
v 0.009984 0.868567 3.700587
v 0.021737 0.903927 3.637171
v -0.001748 0.863447 3.697426
v -0.001748 0.903927 3.637171
v 0.009984 0.697597 3.680037
v -0.001053 0.692897 3.682894
v -0.001748 0.662677 3.639358
v 0.009984 0.669657 3.639785
v 0.021737 0.662677 3.639358
v 0.021737 0.692897 3.682894
v 0.021737 0.839537 3.682894
v -0.001053 0.839537 3.682894
v 0.009984 0.834837 3.680037
v -0.001053 0.766217 3.701378
v 0.009984 0.766217 3.697305
v 0.021737 0.766217 3.701378
v 0.009984 0.697597 3.680037
v -0.001053 0.692897 3.682894
v 0.021737 0.692897 3.682894
v 0.021737 0.863447 3.697426
v 0.021737 0.903927 3.637171
v 0.026560 0.886507 3.638142
v 0.026560 0.851277 3.690068
v 0.021737 0.869757 3.639358
v 0.021737 0.766217 3.721931
v 0.021737 0.839537 3.682894
v 0.021737 0.766217 3.701378
v 0.021737 0.662677 3.639358
v 0.021737 0.668988 3.697426
v 0.021737 0.628507 3.637171
v 0.026560 0.645927 3.638142
v 0.026560 0.681157 3.690068
v 0.026560 0.766217 3.711472
v 0.021737 0.692897 3.682894
v 0.021737 0.869757 3.639358
v 0.021737 0.839537 3.682894
v -0.001748 0.869757 3.639358
v -0.001053 0.839537 3.682894
v 0.009984 0.834837 3.680037
v 0.009984 0.862777 3.639785
v -0.001748 0.668988 3.697426
v -0.001748 0.628507 3.637171
v 0.009984 0.620987 3.636867
v 0.009984 0.663867 3.700587
v 0.021737 0.668988 3.697426
v 0.021737 0.628507 3.637171
v 0.021737 0.863447 3.697426
v 0.009984 0.868567 3.700587
v -0.001748 0.863447 3.697426
v 0.009984 0.766217 3.726307
v 0.021737 0.766217 3.721931
v -0.001748 0.766217 3.721931
v -0.001748 0.668988 3.697426
v 0.009984 0.663867 3.700587
v 0.021737 0.668988 3.697426
vn -0.4505 -0.0000 0.8928
vn -0.8384 -0.0000 0.5451
vn -0.0000 -0.0000 1.0000
vn 0.4505 -0.0000 0.8928
vn 0.8384 -0.0001 0.5451
vn 0.8384 -0.0000 0.5451
vn -0.0000 1.0000 -0.0000
vn -0.8384 -0.0000 -0.5451
vn -1.0000 -0.0000 -0.0000
vn -0.8384 -0.0000 0.5450
vn -0.4505 -0.0000 -0.8928
vn -0.4504 -0.0000 -0.8928
vn -0.0000 -0.0000 -1.0000
vn 0.4504 -0.0000 -0.8928
vn -0.0000 -1.0000 -0.0000
vn 0.4505 -0.0000 -0.8928
vn 0.8384 -0.0000 -0.5451
vn 1.0000 -0.0000 -0.0000
vn 0.8384 -0.0000 0.5450
vn 0.8384 0.0001 0.5450
vn 0.6651 -0.0102 0.7467
vn -0.0140 -0.0626 0.9979
vn 0.6443 -0.0101 0.7647
vn -0.0000 -0.0096 1.0000
vn 0.6187 -0.0302 0.7850
vn -0.6582 -0.0919 0.7472
vn -0.6610 -0.0101 0.7503
vn -0.5861 -0.4624 0.6654
vn 0.0597 -0.3091 0.9491
vn 0.6399 -0.0254 0.7681
vn 0.3870 -0.5341 0.7516
vn 0.6610 -0.0102 0.7503
vn -0.0069 0.0526 0.9986
vn 0.6588 0.0817 0.7479
vn -0.6774 -0.0102 0.7355
vn -0.6568 -0.0102 0.7540
vn -0.1329 0.2649 0.9551
vn -0.7013 -0.0306 0.7122
vn 0.5971 0.4292 0.6777
vn -0.4010 0.4843 0.7776
vn -0.6814 -0.0255 0.7314
vn -0.7177 0.5074 0.4769
vn -0.6916 -0.5579 0.4588
vn -0.3870 -0.5341 0.7516
vn -0.6399 -0.0254 0.7681
vn -0.0597 -0.3091 0.9491
vn -0.6187 -0.0302 0.7850
vn 0.5862 -0.4623 0.6653
vn 0.0140 -0.0626 0.9979
vn 0.6582 -0.0919 0.7472
vn 0.6610 -0.0101 0.7503
vn -0.6651 -0.0102 0.7467
vn -0.6443 -0.0101 0.7647
vn -0.7013 -0.0305 0.7122
vn -0.6814 -0.0256 0.7314
vn -0.6814 -0.0256 0.7315
vn -0.3870 -0.5342 0.7516
vn -0.6651 -0.0102 0.7466
vn -0.0139 -0.0626 0.9979
vn 0.6188 -0.0302 0.7850
vn -0.5862 -0.4623 0.6653
vn 0.6774 -0.0102 0.7355
vn 0.6568 -0.0102 0.7540
vn 0.0069 0.0526 0.9986
vn -0.6588 0.0818 0.7479
vn 0.1329 0.2649 0.9551
vn 0.7013 -0.0306 0.7122
vn -0.5970 0.4293 0.6777
vn 0.4010 0.4843 0.7776
vn 0.6814 -0.0255 0.7314
vn 0.7177 0.5074 0.4769
vn 0.3870 -0.5342 0.7516
vn 0.6814 -0.0255 0.7315
vn 0.6774 -0.0101 0.7355
vn -0.6588 0.0818 0.7478
vn -0.5970 0.4292 0.6777
vn 0.7177 0.5075 0.4768
vn 0.5971 0.4293 -0.6777
vn 0.9402 0.2960 0.1685
vn -0.4010 0.4843 -0.7776
vn -0.1329 0.2649 -0.9551
vn 0.5970 0.4293 0.6777
vn 0.7177 0.5075 -0.4769
vn 0.9402 0.2960 -0.1685
vn -0.1328 0.2649 0.9551
vn 0.2904 0.8983 0.3297
vn 0.4010 0.4843 -0.7776
vn -0.2904 0.8983 -0.3297
vn -0.7177 0.5075 0.4769
vn -0.5970 0.4292 -0.6777
vn -0.9402 0.2960 0.1685
vn 0.1328 0.2649 -0.9551
vn 0.7177 0.5074 -0.4769
vn -0.5970 0.4293 -0.6777
vn -0.1328 0.2649 -0.9551
vn 0.2904 0.8983 -0.3296
vn -0.7177 0.5074 -0.4769
vn -0.2904 0.8983 0.3297
vn 0.4010 0.4844 0.7776
vn -0.9402 0.2960 -0.1685
vn -0.7177 0.5074 -0.4768
vn 0.2905 0.8983 -0.3297
vn -0.9973 -0.0710 0.0180
vn -0.6569 -0.0102 -0.7539
vn -0.6774 -0.0102 -0.7355
vn -0.9999 -0.0109 -0.0000
vn -0.6583 -0.0919 0.7472
vn -0.5861 -0.4623 0.6653
vn -0.9353 -0.3458 -0.0758
vn -0.7013 -0.0306 -0.7122
vn -0.6814 -0.0256 -0.7314
vn -0.6916 -0.5579 -0.4588
vn -0.3869 -0.5341 -0.7516
vn -0.6399 -0.0254 -0.7681
vn -0.6569 -0.0102 0.7539
vn -0.9973 -0.0710 -0.0180
vn -0.6775 -0.0102 0.7355
vn -0.6583 -0.0919 -0.7472
vn -0.6610 -0.0101 -0.7503
vn -0.5862 -0.4624 -0.6653
vn -0.9352 -0.3458 0.0758
vn -0.6188 -0.0302 0.7850
vn -0.6444 -0.0101 0.7646
vn -0.6652 -0.0102 0.7466
vn -0.9982 0.0597 0.0090
vn -0.6588 0.0818 -0.7478
vn -0.6610 -0.0102 -0.7503
vn -0.9353 -0.3458 0.0758
vn -0.3869 -0.5341 0.7517
vn -0.6814 -0.0255 0.7315
vn -0.6399 -0.0254 0.7680
vn -0.6188 -0.0301 0.7850
vn -0.6589 0.0818 -0.7478
vn -0.5971 0.4292 -0.6777
vn -0.9982 0.0597 0.0089
vn -0.9973 -0.0710 0.0179
vn -0.6775 -0.0102 -0.7355
vn -0.5861 -0.4623 0.6654
vn -0.9352 -0.3458 -0.0758
vn -0.6188 -0.0301 -0.7850
vn -0.6444 -0.0101 -0.7646
vn -0.6652 -0.0102 -0.7466
vn -0.9982 0.0597 -0.0089
vn -0.6589 0.0817 0.7478
vn -0.5971 0.4292 0.6777
vn -0.0069 0.0526 -0.9986
vn 0.6610 -0.0101 -0.7503
vn 0.6588 0.0817 -0.7479
vn -0.0000 -0.0096 -1.0000
vn -0.6568 -0.0102 -0.7540
vn 0.5970 0.4292 -0.6777
vn -0.7013 -0.0306 -0.7123
vn -0.6814 -0.0255 -0.7315
vn -0.6582 -0.0919 -0.7472
vn -0.0140 -0.0626 -0.9979
vn 0.6651 -0.0102 -0.7467
vn 0.6443 -0.0101 -0.7647
vn 0.6188 -0.0302 -0.7850
vn -0.5862 -0.4623 -0.6653
vn 0.0597 -0.3091 -0.9491
vn 0.6399 -0.0254 -0.7681
vn 0.3870 -0.5342 -0.7516
vn 0.6916 -0.5579 -0.4588
vn 0.6814 -0.0255 -0.7315
vn 0.7013 -0.0305 -0.7122
vn 0.1329 0.2649 -0.9551
vn 0.6774 -0.0102 -0.7355
vn 0.6568 -0.0102 -0.7540
vn 0.0069 0.0526 -0.9986
vn -0.6588 0.0817 -0.7479
vn 0.6398 -0.0254 -0.7681
vn 0.7013 -0.0306 -0.7122
vn 0.6815 -0.0256 -0.7314
vn 0.6588 0.0818 -0.7479
vn -0.6774 -0.0101 -0.7355
vn 0.5970 0.4293 -0.6777
vn -0.3870 -0.5341 -0.7516
vn -0.0597 -0.3091 -0.9491
vn -0.6187 -0.0302 -0.7850
vn 0.0140 -0.0626 -0.9979
vn -0.6443 -0.0101 -0.7647
vn 0.5861 -0.4624 -0.6653
vn -0.6651 -0.0102 -0.7467
vn 0.6582 -0.0919 -0.7472
vn -0.6187 -0.0301 -0.7850
vn -0.2203 -0.9428 0.2501
vn -0.5861 -0.4624 0.6653
vn 0.3869 -0.5342 0.7516
vn -0.6916 -0.5579 -0.4587
vn -0.3870 -0.5342 -0.7516
vn 0.2203 -0.9428 -0.2501
vn -0.5861 -0.4624 -0.6653
vn -0.2203 -0.9428 -0.2501
vn 0.0597 -0.3092 -0.9491
vn 0.3869 -0.5342 -0.7516
vn 0.2203 -0.9428 0.2501
vn -0.3869 -0.5342 0.7516
vn -0.0597 -0.3092 0.9491
vn 0.9352 -0.3458 -0.0758
vn 0.5861 -0.4623 0.6653
vn -0.2204 -0.9428 0.2501
vn -0.5862 -0.4624 0.6653
vn -0.0597 -0.3092 -0.9491
vn 0.6916 -0.5579 0.4587
vn 0.9352 -0.3458 0.0758
vn 0.0597 -0.3092 0.9491
vn 0.9352 -0.3458 0.0759
vn 0.5862 -0.4623 -0.6653
vn 0.9982 0.0597 0.0089
vn 0.6589 0.0817 -0.7478
vn 0.9999 -0.0109 -0.0000
vn 0.6444 -0.0101 0.7646
vn 0.6652 -0.0102 0.7466
vn 0.5971 0.4292 -0.6777
vn 0.6188 -0.0301 0.7850
vn 0.9982 0.0597 -0.0089
vn 0.6589 0.0818 0.7478
vn 0.6444 -0.0101 -0.7646
vn 0.6652 -0.0102 -0.7466
vn 0.6188 -0.0301 -0.7850
vn 0.6814 -0.0256 -0.7314
vn 0.9353 -0.3458 -0.0759
vn 0.5862 -0.4624 0.6653
vn 0.9973 -0.0710 0.0180
vn 0.6583 -0.0919 0.7472
vn 0.6569 -0.0102 -0.7539
vn 0.9999 -0.0108 -0.0000
vn 0.6444 -0.0101 -0.7647
vn 0.6588 0.0817 0.7478
vn 0.6399 -0.0253 -0.7680
vn 0.6775 -0.0102 -0.7355
vn 0.6610 -0.0102 -0.7503
vn 0.6583 -0.0919 -0.7472
vn 0.9973 -0.0710 -0.0180
vn 0.6569 -0.0102 0.7539
vn 0.9353 -0.3457 0.0758
vn 0.6775 -0.0102 0.7355
vn 0.6916 -0.5579 0.4588
vn 0.6814 -0.0256 0.7314
vn 0.3870 -0.5341 0.7517
vn 0.9353 -0.3457 0.0759
vn 0.5861 -0.4623 -0.6654
vn -0.7892 -0.3313 0.5171
vn -0.4305 0.3131 0.8465
vn -0.7892 0.3313 0.5171
vn 0.7892 0.3313 0.5171
vn 0.4306 -0.3131 0.8465
vn 0.7892 -0.3313 0.5172
vn 0.4306 0.3131 0.8465
vn -0.0000 -0.3050 0.9523
vn -0.0000 0.3050 0.9523
vn -0.4306 -0.3131 0.8465
vn 0.0114 0.9999 0.0130
vn 0.0115 0.9999 -0.0000
vn -0.0000 0.9999 0.0130
vn 0.0113 0.9999 -0.0000
vn 0.0114 0.9999 -0.0130
vn -0.0114 0.9999 0.0130
vn -0.0000 0.9999 -0.0130
vn -0.0115 0.9999 -0.0000
vn -0.0000 0.9999 -0.0128
vn -0.0113 0.9999 -0.0000
vn -0.0114 0.9999 -0.0130
vn -0.9398 0.3417 -0.0000
vn -0.7892 0.3313 0.5172
vn -0.8078 0.5895 -0.0000
vn -0.7892 0.3313 -0.5171
vn -0.6852 0.5725 -0.4503
vn -0.6852 0.5725 0.4503
vn -0.3800 0.5483 -0.7450
vn -0.3800 0.5483 0.7450
vn -0.0000 0.5408 0.8412
vn -0.4305 0.3131 -0.8465
vn -0.0000 0.5408 -0.8412
vn -0.0000 0.3051 -0.9523
vn 0.4306 0.3131 -0.8465
vn 0.3800 0.5483 -0.7450
vn 0.6852 0.5725 -0.4502
vn 0.7892 0.3313 -0.5172
vn 0.8078 0.5895 -0.0000
vn 0.9398 0.3417 -0.0000
vn 0.6852 0.5725 0.4503
vn 0.3800 0.5483 0.7450
vn -0.0000 0.3051 0.9523
vn -0.9398 -0.3417 -0.0000
vn -0.7892 -0.3313 -0.5172
vn -0.8384 -0.0000 -0.5450
vn -0.4305 -0.3131 -0.8465
vn -0.7892 -0.3313 -0.5171
vn -0.4306 0.3131 -0.8465
vn -0.0000 -0.3050 -0.9523
vn -0.0000 0.3050 -0.9523
vn 0.4305 -0.3131 -0.8465
vn 0.7892 -0.3313 -0.5171
vn 0.0114 -0.9999 0.0130
vn 0.0115 -0.9999 -0.0000
vn 0.0113 -0.9999 -0.0000
vn -0.0000 -0.9999 0.0130
vn 0.0114 -0.9999 -0.0130
vn -0.0114 -0.9999 0.0130
vn -0.0000 -0.9999 -0.0130
vn -0.0000 -0.9999 -0.0128
vn -0.0115 -0.9999 -0.0000
vn -0.0114 -0.9999 -0.0130
vn -0.0113 -0.9999 -0.0000
vn -0.8077 -0.5895 -0.0000
vn -0.6852 -0.5725 0.4503
vn -0.3800 -0.5483 0.7450
vn -0.6852 -0.5725 -0.4503
vn -0.3800 -0.5483 -0.7450
vn -0.0000 -0.5408 -0.8411
vn -0.0000 -0.3051 -0.9523
vn 0.4306 -0.3131 -0.8465
vn 0.3800 -0.5483 -0.7450
vn 0.6852 -0.5725 -0.4503
vn 0.8077 -0.5896 -0.0000
vn 0.9398 -0.3417 -0.0000
vn 0.6852 -0.5725 0.4502
vn 0.3800 -0.5483 0.7450
vn -0.0000 -0.5408 0.8412
vn -0.0000 -0.3051 0.9523
vn -0.4305 -0.3131 0.8465
vn 0.7892 0.3313 -0.5171
vn 0.7892 -0.3313 0.5171
vn 0.8384 -0.0000 -0.5450
vn -0.9965 0.0710 0.0449
vn -0.6946 0.3778 0.6122
vn -0.7241 0.5685 0.3904
vn -0.9973 0.0379 0.0624
vn -0.8069 -0.4842 -0.3384
vn -0.6231 -0.0000 0.7822
vn -0.7627 -0.3360 -0.5526
vn -0.9968 -0.0000 0.0801
vn -0.7017 -0.0000 -0.7125
vn -0.7627 0.3360 -0.5526
vn -0.9973 -0.0379 0.0624
vn -0.8099 0.4808 -0.3361
vn -0.9965 -0.0710 0.0449
vn -0.6946 -0.3779 0.6122
vn -0.7241 -0.5685 0.3905
vn 0.6946 0.3779 0.6122
vn -0.0000 0.8312 0.5560
vn -0.0000 0.5196 0.8544
vn 0.7241 0.5685 0.3905
vn -0.6946 0.3779 0.6122
vn -0.7241 0.5685 0.3905
vn -0.8098 0.4808 -0.3361
vn -0.0000 0.5196 -0.8544
vn -0.0000 0.8235 -0.5672
vn 0.8099 0.4808 -0.3361
vn 0.7627 0.3360 -0.5526
vn -0.0000 -0.5153 -0.8570
vn -0.7016 -0.0000 -0.7126
vn 0.7016 -0.0000 -0.7126
vn 0.7627 -0.3360 -0.5526
vn -0.0000 0.5195 -0.8545
vn 0.9965 0.0710 0.0449
vn 0.7241 0.5685 0.3904
vn 0.9973 0.0379 0.0624
vn 0.8099 -0.4808 -0.3360
vn 0.6231 -0.0000 0.7822
vn 0.6946 -0.3778 0.6122
vn 0.7241 -0.5685 0.3904
vn 0.9965 -0.0710 0.0449
vn 0.9973 -0.0379 0.0624
vn 0.9968 -0.0000 0.0802
vn 0.7016 -0.0000 -0.7125
vn 0.8098 -0.4808 -0.3361
vn -0.8068 -0.4842 -0.3385
vn -0.0000 -0.8235 -0.5673
vn -0.0000 -0.8312 0.5560
vn -0.0000 -0.5196 0.8544
vn 0.6946 -0.3779 0.6122
vn 0.7241 -0.5685 0.3905
vn 0.0001 -0.0000 1.0000
vn -0.0000 0.5195 0.8545
vn -0.6230 -0.0000 0.7822
vn -0.0000 -0.5195 0.8545
vt 29.679800 -10.979900
vt 29.445400 -10.979900
vt 29.445400 -11.020100
vt 29.679800 -11.020100
vt 30.000000 -10.979900
vt 30.000000 -11.020100
vt 30.320200 -10.979900
vt 30.320200 -11.020100
vt 30.554600 -10.979900
vt 30.554600 -11.020100
vt 30.640400 -11.000000
vt 30.320200 -10.445400
vt 30.000000 -10.359600
vt 30.554600 -10.679800
vt 29.445400 -10.679800
vt 29.679800 -10.445400
vt 29.359600 -11.000000
vt 30.000000 -11.640400
vt 30.320200 -11.554600
vt 30.554600 -11.320200
vt 29.679800 -11.554600
vt 29.445400 -11.320200
vt 45.384701 -28.898899
vt 45.370998 -29.012600
vt 45.383801 -29.013201
vt 45.370800 -28.898899
vt 45.393398 -29.060699
vt 45.357899 -29.012400
vt 45.356899 -28.898899
vt 45.369999 -29.072300
vt 45.382401 -29.068800
vt 45.421001 -29.082399
vt 45.418098 -29.095600
vt 45.370899 -29.013800
vt 45.383701 -29.014099
vt 45.358101 -29.013201
vt 45.378601 -29.052799
vt 45.367599 -29.060699
vt 45.390202 -29.049601
vt 45.398201 -29.069599
vt 45.395199 -29.082399
vt 45.730301 -29.069599
vt 45.399601 -29.095600
vt 45.728401 -29.095600
vt 45.725498 -29.082399
vt 45.764000 -29.068800
vt 45.753101 -29.060699
vt 45.776402 -29.072300
vt 45.775501 -29.012600
vt 45.788502 -29.012400
vt 45.789501 -28.898899
vt 45.775600 -28.898899
vt 45.761700 -28.898899
vt 45.762600 -29.013201
vt 46.238300 -28.898899
vt 46.224499 -29.013800
vt 46.237301 -29.014099
vt 46.224400 -28.898899
vt 46.232101 -29.052799
vt 46.243698 -29.049601
vt 46.211601 -29.013201
vt 46.210499 -28.898899
vt 46.221100 -29.060699
vt 46.251701 -29.069599
vt 46.248798 -29.082399
vt 46.578999 -29.082399
vt 46.581902 -29.095600
vt 46.617599 -29.068800
vt 46.606602 -29.060699
vt 46.629002 -29.012600
vt 46.630001 -29.072300
vt 46.616199 -29.013201
vt 46.642101 -29.012400
vt 46.615299 -28.898899
vt 46.629200 -28.898899
vt 46.643101 -28.898899
vt 46.224499 -29.012600
vt 46.237400 -29.013201
vt 46.246899 -29.060699
vt 46.211498 -29.012400
vt 46.223598 -29.072300
vt 46.641899 -29.013201
vt 46.629101 -29.013800
vt 46.616299 -29.014099
vt 46.621399 -29.052799
vt 46.632401 -29.060699
vt 46.609798 -29.049601
vt 46.601799 -29.069599
vt 46.604801 -29.082399
vt 46.274502 -29.082399
vt 46.269699 -29.069599
vt 46.271599 -29.095600
vt 46.236000 -29.068800
vt 45.751202 -29.082399
vt 45.748299 -29.069599
vt 45.416100 -29.069599
vt 45.778900 -29.060699
vt 45.788399 -29.013201
vt 45.775501 -29.013800
vt 45.762699 -29.014099
vt 45.767899 -29.052799
vt 45.756302 -29.049601
vt 46.251701 -28.416100
vt 46.243698 -28.390200
vt 46.232101 -28.396299
vt 46.269699 -28.398199
vt 46.249901 -28.378599
vt 45.756302 -28.390200
vt 45.748299 -28.416100
vt 45.767899 -28.396299
vt 45.750099 -28.378599
vt 45.730301 -28.398199
vt 45.739799 -28.406700
vt 45.416100 -28.748301
vt 45.406700 -28.739799
vt 45.398201 -28.730301
vt 45.390202 -28.756300
vt 45.378601 -28.750099
vt 45.396301 -28.767900
vt 46.609798 -29.243700
vt 46.601799 -29.269699
vt 46.621399 -29.249901
vt 46.583900 -29.251699
vt 46.603699 -29.232100
vt 46.593300 -29.260201
vt 46.269699 -29.601801
vt 46.260201 -29.593300
vt 46.251701 -29.583900
vt 46.243698 -29.609800
vt 46.249901 -29.621401
vt 46.232101 -29.603701
vt 45.390202 -29.243700
vt 45.416100 -29.251699
vt 45.396301 -29.232100
vt 45.398201 -29.269699
vt 45.378601 -29.249901
vt 45.406700 -29.260201
vt 45.748299 -29.583900
vt 45.739799 -29.593300
vt 45.730301 -29.601801
vt 45.756302 -29.609800
vt 45.767899 -29.603701
vt 45.750099 -29.621401
vt 46.583900 -28.748301
vt 46.603699 -28.767900
vt 46.609798 -28.756300
vt 46.601799 -28.730301
vt 46.621399 -28.750099
vt 46.593300 -28.739799
vt 46.260201 -28.406700
vt 45.746899 -29.095600
vt 46.600399 -29.095600
vt 46.583900 -29.069599
vt 46.253101 -29.095600
vt 45.737400 -28.409000
vt 45.782600 -28.382401
vt 45.776402 -28.370001
vt 45.746899 -28.418100
vt 45.764000 -28.363800
vt 45.728401 -28.399599
vt 45.399601 -28.728399
vt 45.409000 -28.737400
vt 46.223598 -28.370001
vt 46.262600 -28.409000
vt 46.236000 -28.363800
vt 46.217400 -28.382401
vt 46.271599 -28.399599
vt 46.253101 -28.418100
vt 46.591000 -28.737400
vt 46.600399 -28.728399
vt 46.636200 -28.764000
vt 46.581902 -28.746901
vt 46.617599 -28.782600
vt 46.630001 -28.776400
vt 45.409000 -29.262600
vt 45.382401 -29.217400
vt 45.369999 -29.223600
vt 45.363800 -29.236000
vt 45.418098 -29.253099
vt 45.399601 -29.271601
vt 45.746899 -29.581900
vt 45.737400 -29.591000
vt 45.728401 -29.600401
vt 45.764000 -29.636200
vt 45.782600 -29.617599
vt 45.776402 -29.629999
vt 46.591000 -29.262600
vt 46.617599 -29.217400
vt 46.581902 -29.253099
vt 46.630001 -29.223600
vt 46.253101 -29.581900
vt 46.217400 -29.617599
vt 46.262600 -29.591000
vt 46.223598 -29.629999
vt 46.271599 -29.600401
vt 46.236000 -29.636200
vt 46.600399 -29.271601
vt 46.636200 -29.236000
vt 45.363800 -28.764000
vt 45.418098 -28.746901
vt 45.382401 -28.782600
vt 45.369999 -28.776400
vt 49.345901 -47.015598
vt 49.622299 -46.984402
vt 49.345901 -46.984402
vt 50.654099 -46.984402
vt 50.377701 -47.015598
vt 50.654099 -47.015598
vt 50.377701 -46.984402
vt 50.000000 -47.015598
vt 50.000000 -46.984402
vt 49.622299 -47.015598
vt 49.685902 -47.034100
vt 49.456001 -46.965900
vt 49.456001 -47.034100
vt 49.685902 -46.965900
vt 50.000000 -47.034100
vt 50.000000 -46.965900
vt 50.314098 -47.034100
vt 50.314098 -46.965900
vt 50.543999 -47.034100
vt 50.543999 -46.965900
vt 50.543999 -46.685902
vt 50.367500 -46.363499
vt 50.314098 -46.456001
vt 50.636501 -46.632500
vt 50.000000 -46.265099
vt 50.734901 -47.000000
vt 50.000000 -46.371899
vt 50.628101 -47.000000
vt 49.685902 -46.456001
vt 50.543999 -47.314098
vt 49.632500 -46.363499
vt 50.636501 -47.367500
vt 49.363499 -46.632500
vt 50.314098 -47.543999
vt 49.456001 -46.685902
vt 50.367500 -47.636501
vt 49.265099 -47.000000
vt 50.000000 -47.734901
vt 49.371899 -47.000000
vt 50.000000 -47.628101
vt 49.456001 -47.314098
vt 49.685902 -47.543999
vt 49.363499 -47.367500
vt 49.632500 -47.636501
vt 50.000000 -46.244701
vt 49.622299 -46.345901
vt 50.377701 -46.345901
vt 49.345901 -46.622299
vt 50.654099 -46.622299
vt 50.755299 -47.000000
vt 50.654099 -47.377701
vt 50.377701 -47.654099
vt 50.000000 -47.755299
vt 49.622299 -47.654099
vt 49.345901 -47.377701
vt 49.244701 -47.000000
vt 1.991070 -2.984960
vt 2.003260 -2.987850
vt 1.990870 -2.982790
vt 2.001740 -2.989370
vt 1.991310 -2.987060
vt 2.008290 -3.000000
vt 2.000270 -2.990840
vt 2.006140 -3.000000
vt 2.004070 -3.000000
vt 2.000270 -3.009160
vt 2.001740 -3.010630
vt 1.991310 -3.012940
vt 1.991070 -3.015040
vt 2.003260 -3.012150
vt 1.990870 -3.017210
vt 2.002140 -3.003260
vt 2.000000 -2.990800
vt 2.000000 -3.003900
vt 2.002170 -2.990870
vt 1.997860 -3.003260
vt 1.997830 -2.990870
vt 1.997910 -2.991310
vt 1.997930 -3.000270
vt 2.000000 -2.999680
vt 2.000000 -2.991410
vt 2.002090 -2.991310
vt 2.002070 -3.000270
vt 2.000000 -2.991420
vt 2.002070 -3.000000
vt 2.002070 -2.990840
vt 2.000000 -3.000000
vt 1.997930 -3.000000
vt 1.997930 -2.990840
vt 2.000000 -3.008580
vt 2.002070 -3.009160
vt 1.997930 -3.009160
vt 1.996740 -2.987850
vt 2.008930 -2.984960
vt 2.009130 -2.982790
vt 1.998260 -2.989370
vt 2.008690 -2.987060
vt 1.991710 -3.000000
vt 1.999730 -2.990840
vt 1.996740 -3.012150
vt 2.009130 -3.017210
vt 2.008930 -3.015040
vt 1.998260 -3.010630
vt 2.008690 -3.012940
vt 1.993860 -3.000000
vt 1.995930 -3.000000
vt 1.999730 -3.009160
vt 2.002140 -2.987850
vt 2.000000 -2.987210
vt 1.997860 -2.987850
vt 2.002140 -3.000000
vt 1.997860 -3.000000
vt 1.997860 -3.012150
vt 2.000000 -3.012790
vt 2.002140 -3.012150
s 1
usemtl Meshpart1Mtl
f 3/1/1 1/2/2 2/3/2
f 2/3/2 4/4/1 3/1/1
f 5/5/3 3/1/1 4/4/1
f 4/4/1 6/6/3 5/5/3
f 7/7/4 5/5/3 6/6/3
f 6/6/3 8/8/4 7/7/4
f 9/9/5 7/7/4 8/8/4
f 8/8/4 10/10/6 9/9/5
f 11/11/7 12/12/7 13/13/7
f 12/12/7 11/11/7 14/14/7
f 15/15/7 13/13/7 16/16/7
f 17/17/7 13/13/7 15/15/7
f 18/18/7 11/11/7 13/13/7
f 17/17/7 18/18/7 13/13/7
f 11/11/7 18/18/7 19/19/7
f 11/11/7 19/19/7 20/20/7
f 18/18/7 17/17/7 21/21/7
f 21/21/7 17/17/7 22/22/7
f 23/4/8 24/6/9 25/5/9
f 24/6/9 26/7/10 25/5/9
f 23/4/8 25/5/9 27/1/8
f 24/6/9 28/8/10 26/7/10
f 29/3/11 23/4/8 27/1/8
f 29/3/11 27/1/8 30/2/11
f 32/7/12 33/6/13 31/8/12
f 33/6/13 32/7/12 34/5/13
f 34/5/13 35/4/14 33/6/13
f 35/4/14 34/5/13 36/1/14
f 37/17/15 38/21/15 39/18/15
f 38/21/15 37/17/15 40/22/15
f 41/20/15 39/18/15 42/19/15
f 43/11/15 39/18/15 41/20/15
f 43/11/15 37/17/15 39/18/15
f 37/17/15 44/16/15 45/15/15
f 37/17/15 46/13/15 44/16/15
f 46/13/15 37/17/15 43/11/15
f 46/13/15 43/11/15 47/12/15
f 47/12/15 43/11/15 48/14/15
f 50/9/16 51/8/17 49/10/16
f 50/9/16 53/7/17 51/8/17
f 53/7/17 55/6/18 51/8/17
f 56/5/18 52/1/19 54/4/20
f 53/7/17 56/5/18 55/6/18
f 56/5/18 54/4/20 55/6/18
usemtl Meshpart2Mtl
f 58/23/21 59/24/22 57/25/23
f 59/24/22 58/23/21 60/26/24
f 59/24/22 61/27/25 57/25/23
f 60/26/24 63/28/26 59/24/22
f 63/28/26 60/26/24 64/29/27
f 65/30/28 59/24/22 63/28/26
f 61/27/25 59/24/22 66/31/29
f 59/24/22 65/30/28 66/31/29
f 66/31/29 67/32/30 61/27/25
f 66/31/29 68/33/31 67/32/30
f 69/23/32 70/34/33 71/35/34
f 70/34/33 69/23/32 72/26/24
f 72/26/24 73/36/35 70/34/33
f 73/36/35 72/26/24 74/29/36
f 73/36/35 75/37/37 70/34/33
f 75/37/37 71/35/34 70/34/33
f 75/37/37 73/36/35 76/38/38
f 71/35/34 75/37/37 77/39/39
f 76/38/38 78/40/40 75/37/37
f 78/40/40 76/38/38 80/41/41
f 79/42/42 78/40/40 80/41/41
f 81/43/43 83/44/44 82/45/45
f 83/44/44 84/46/46 82/45/45
f 82/45/45 84/46/46 85/47/47
f 86/48/48 87/49/49 84/46/46
f 84/46/46 87/49/49 85/47/47
f 87/49/49 86/48/48 88/50/50
f 88/50/50 89/51/51 90/52/24
f 88/50/50 90/52/24 87/49/49
f 87/49/49 90/52/24 91/53/52
f 87/49/49 91/53/52 92/54/53
f 85/47/47 87/49/49 92/54/53
f 93/55/51 95/56/33 94/57/34
f 95/56/33 93/55/51 96/58/24
f 98/59/37 94/57/34 95/56/33
f 94/57/34 98/59/37 97/60/39
f 96/58/24 99/61/35 95/56/33
f 99/61/35 98/59/37 95/56/33
f 99/61/35 96/58/24 100/62/36
f 98/59/37 99/61/35 101/63/54
f 101/63/54 102/64/40 98/59/37
f 101/63/54 103/65/55 102/64/40
f 105/66/45 103/65/56 104/67/57
f 106/68/46 105/66/45 104/67/57
f 105/66/45 106/68/46 107/69/47
f 109/70/49 107/69/47 106/68/46
f 108/71/48 109/70/49 106/68/46
f 107/69/47 109/70/49 110/72/53
f 108/71/48 111/73/50 109/70/49
f 109/70/49 112/74/58 110/72/53
f 112/74/58 109/70/49 113/75/24
f 111/73/50 113/75/24 109/70/49
f 113/75/24 111/73/50 114/76/51
f 116/55/21 117/77/59 115/78/23
f 117/77/59 116/55/21 118/58/24
f 117/77/59 119/79/60 115/78/23
f 118/58/24 120/80/26 117/77/59
f 120/80/26 118/58/24 121/62/27
f 122/81/61 117/77/59 120/80/26
f 129/82/62 128/76/63 130/75/24
f 129/82/62 130/75/24 133/83/64
f 133/83/64 130/75/24 126/74/27
f 133/83/64 126/74/27 127/84/65
f 134/85/66 129/82/62 133/83/64
f 127/84/65 134/85/66 133/83/64
f 131/86/67 129/82/62 134/85/66
f 134/85/66 127/84/65 125/87/68
f 124/88/69 131/86/67 134/85/66
f 132/89/70 131/86/67 124/88/69
f 135/90/30 132/89/70 124/88/69
f 124/88/69 123/91/71 135/90/30
f 132/89/70 135/90/30 136/92/72
f 135/90/30 137/93/29 136/92/72
f 137/93/29 135/90/30 119/79/60
f 119/79/60 117/77/59 137/93/29
f 117/77/59 122/81/61 137/93/29
f 68/33/31 138/94/73 67/32/30
f 139/95/69 67/32/30 138/94/73
f 67/32/30 139/95/69 62/96/71
f 140/97/67 139/95/69 138/94/73
f 143/52/24 142/98/74 141/51/63
f 144/53/27 145/99/64 143/52/24
f 142/98/74 143/52/24 145/99/64
f 145/99/64 144/53/27 146/100/75
f 147/101/66 142/98/74 145/99/64
f 147/101/66 145/99/64 146/100/75
f 142/98/74 147/101/66 140/97/67
f 139/95/69 140/97/67 147/101/66
f 147/101/66 146/100/75 148/102/76
f 152/103/77 151/104/78 150/105/79
f 151/104/78 153/106/80 149/107/81
f 156/108/82 157/109/83 155/110/84
f 154/111/85 158/112/40 156/108/82
f 157/109/83 156/108/82 159/113/86
f 158/112/40 159/113/86 156/108/82
f 159/113/86 160/114/87 157/109/83
f 158/112/40 161/115/88 159/113/86
f 159/113/86 161/115/88 160/114/87
f 161/115/88 158/112/40 162/116/89
f 165/117/90 162/116/89 164/118/91
f 160/114/87 165/117/90 163/119/92
f 162/116/89 165/117/90 161/115/88
f 165/117/90 160/114/87 161/115/88
f 167/120/82 169/121/93 166/122/84
f 170/123/40 167/120/82 168/124/85
f 167/120/82 170/123/40 171/125/86
f 169/121/93 167/120/82 171/125/86
f 172/126/87 169/121/93 173/127/88
f 171/125/86 173/127/88 169/121/93
f 173/127/88 171/125/86 175/128/42
f 170/123/40 175/128/42 171/125/86
f 176/129/94 172/126/87 173/127/88
f 172/126/87 176/129/94 174/130/92
f 175/128/42 176/129/94 173/127/88
f 175/128/42 177/131/91 176/129/94
f 180/132/78 181/133/80 179/134/95
f 182/135/71 180/132/78 178/136/79
f 181/133/80 180/132/78 183/137/96
f 180/132/78 182/135/71 183/137/96
f 183/137/96 184/138/97 181/133/80
f 182/135/71 185/139/98 183/137/96
f 184/138/97 183/137/96 185/139/98
f 185/139/98 182/135/71 186/140/99
f 185/139/98 187/141/68 184/138/97
f 186/140/99 187/141/68 185/139/98
f 188/142/100 184/138/97 187/141/68
f 187/141/68 186/140/99 189/143/66
f 190/144/69 192/145/66 193/146/68
f 194/147/101 193/146/68 191/148/100
f 193/146/68 194/147/101 195/149/98
f 193/146/68 195/149/98 190/144/69
f 153/106/80 195/149/98 194/147/101
f 196/150/102 190/144/69 195/149/98
f 196/150/102 195/149/98 153/106/80
f 152/103/77 190/144/69 196/150/102
f 153/106/80 151/104/78 196/150/102
f 151/104/78 152/103/77 196/150/102
f 199/49/103 198/53/104 197/54/105
f 198/53/104 199/49/103 200/52/106
f 200/52/106 201/50/107 202/51/27
f 201/50/107 200/52/106 199/49/103
f 203/48/108 201/50/107 199/49/103
f 199/49/103 204/46/109 203/48/108
f 199/49/103 205/47/110 204/46/109
f 205/47/110 199/49/103 197/54/105
f 206/45/111 204/46/109 205/47/110
f 204/46/109 206/45/111 207/44/112
f 209/43/113 207/44/112 208/41/114
f 211/55/115 212/77/116 210/78/117
f 212/77/116 211/55/115 213/58/106
f 212/77/116 214/79/38 210/78/117
f 213/58/106 215/80/118 212/77/116
f 215/80/118 213/58/106 216/62/119
f 217/81/120 212/77/116 215/80/118
f 220/93/121 219/90/55 214/79/38
f 214/79/38 212/77/116 220/93/121
f 212/77/116 217/81/120 220/93/121
f 219/90/55 220/93/121 221/92/43
f 222/89/45 219/90/55 221/92/43
f 219/90/55 222/89/45 218/88/42
f 218/88/42 222/89/45 223/86/122
f 226/82/123 224/76/124 227/75/106
f 228/83/125 227/75/106 225/74/119
f 227/75/106 228/83/125 226/82/123
f 225/74/119 229/84/126 228/83/125
f 223/86/122 226/82/123 230/85/91
f 230/85/91 226/82/123 228/83/125
f 229/84/126 230/85/91 228/83/125
f 230/85/91 218/88/42 223/86/122
f 230/85/91 229/84/126 231/87/90
f 232/25/117 233/23/115 234/24/116
f 234/24/116 233/23/115 235/26/106
f 236/27/38 232/25/117 234/24/116
f 234/24/116 235/26/106 239/28/118
f 239/28/118 235/26/106 240/29/127
f 241/30/120 234/24/116 239/28/118
f 234/24/116 242/31/128 236/27/38
f 234/24/116 241/30/120 242/31/128
f 242/31/128 238/32/55 236/27/38
f 238/32/55 242/31/128 243/33/43
f 243/33/43 244/151/129 238/32/55
f 238/32/130 245/95/42 237/96/40
f 245/95/42 238/32/130 247/94/131
f 248/97/132 245/95/42 247/94/131
f 245/95/42 248/97/132 249/101/91
f 250/100/133 246/102/134 249/101/91
f 251/98/123 249/101/91 248/97/132
f 253/52/106 251/98/123 252/51/124
f 251/98/123 253/52/106 254/99/135
f 249/101/91 251/98/123 254/99/135
f 255/53/119 254/99/135 253/52/106
f 249/101/91 254/99/135 250/100/133
f 254/99/135 255/53/119 250/100/133
f 256/73/107 257/76/27 258/75/106
f 258/75/106 260/70/136 256/73/107
f 260/70/136 258/75/106 261/74/104
f 261/74/104 259/72/137 260/70/136
f 262/69/110 260/70/136 259/72/137
f 260/70/136 263/71/138 256/73/107
f 264/68/139 260/70/136 262/69/110
f 263/71/138 260/70/136 264/68/139
f 262/69/110 265/66/111 264/68/139
f 265/66/111 267/67/112 264/68/139
f 268/64/97 270/63/140 266/65/114
f 270/63/140 268/64/97 271/59/100
f 271/59/100 272/61/141 270/63/140
f 272/61/141 274/58/106 273/62/142
f 274/58/106 272/61/141 275/56/143
f 272/61/141 271/59/100 275/56/143
f 275/56/143 276/55/27 274/58/106
f 271/59/100 277/57/144 275/56/143
f 276/55/27 275/56/143 277/57/144
f 277/57/144 271/59/100 269/60/145
f 280/36/141 281/26/106 279/29/142
f 282/34/143 281/26/106 280/36/141
f 282/34/143 283/23/27 281/26/106
f 280/36/141 278/38/140 284/37/100
f 284/37/100 282/34/143 280/36/141
f 285/35/144 283/23/27 282/34/143
f 284/37/100 285/35/144 282/34/143
f 285/35/144 284/37/100 286/39/76
f 278/38/140 287/40/97 284/37/100
f 287/40/97 278/38/140 208/41/114
f 288/83/146 289/74/147 290/84/148
f 289/74/147 288/83/146 291/75/149
f 292/82/105 291/75/149 288/83/146
f 291/75/149 292/82/105 293/76/150
f 294/85/81 292/82/105 288/83/146
f 290/84/148 294/85/81 288/83/146
f 294/85/81 290/84/148 295/87/151
f 292/82/105 294/85/81 296/86/152
f 297/88/80 296/86/152 294/85/81
f 296/86/152 297/88/80 298/89/153
f 298/89/153 300/90/114 299/152/112
f 297/88/80 300/90/114 298/89/153
f 304/75/149 302/73/154 303/76/127
f 304/75/149 306/70/155 302/73/154
f 307/74/156 306/70/155 304/75/149
f 307/74/156 305/72/157 306/70/155
f 305/72/157 308/69/158 306/70/155
f 306/70/155 309/71/159 302/73/154
f 310/68/160 306/70/155 308/69/158
f 309/71/159 306/70/155 310/68/160
f 312/66/161 310/68/160 308/69/158
f 313/64/87 312/66/161 311/153/93
f 310/68/160 312/66/161 314/67/162
f 315/154/163 314/67/162 312/66/161
f 312/66/161 316/65/164 315/154/163
f 312/66/161 313/64/87 316/65/164
f 313/64/87 317/63/165 316/65/164
f 317/63/165 313/64/87 318/59/166
f 318/59/166 319/61/167 317/63/165
f 319/61/167 321/58/149 320/62/168
f 321/58/149 319/61/167 322/56/169
f 319/61/167 318/59/166 322/56/169
f 322/56/169 323/55/119 321/58/149
f 323/55/119 322/56/169 324/57/170
f 322/56/169 318/59/166 324/57/170
f 325/60/134 324/57/170 318/59/166
f 328/49/155 327/53/156 326/54/157
f 327/53/156 328/49/155 329/52/149
f 330/47/158 328/49/155 326/54/157
f 329/52/149 331/50/154 332/51/119
f 331/50/154 329/52/149 328/49/155
f 328/49/155 333/48/159 331/50/154
f 333/48/159 328/49/155 334/46/160
f 328/49/155 330/47/158 334/46/160
f 335/45/171 334/46/160 330/47/158
f 334/46/160 335/45/171 336/44/162
f 338/40/87 339/38/172 337/41/173
f 338/40/87 340/37/166 339/38/172
f 342/35/170 340/37/166 341/39/134
f 343/29/168 345/36/167 346/26/149
f 345/36/167 339/38/172 340/37/166
f 342/35/170 344/23/127 347/34/169
f 346/26/149 347/34/169 344/23/127
f 340/37/166 342/35/170 347/34/169
f 347/34/169 346/26/149 345/36/167
f 345/36/167 340/37/166 347/34/169
f 348/53/147 349/100/174 350/99/146
f 348/53/147 350/99/146 351/52/149
f 351/52/149 350/99/146 352/98/175
f 351/52/149 352/98/175 353/51/150
f 350/99/146 354/101/81 352/98/175
f 349/100/174 354/101/81 350/99/146
f 355/97/110 352/98/175 354/101/81
f 354/101/81 349/100/174 356/102/176
f 357/95/80 355/97/110 354/101/81
f 355/97/110 357/95/80 358/94/153
f 359/32/114 358/94/153 357/95/80
f 359/32/114 360/151/112 358/94/153
f 357/95/80 361/96/97 359/32/114
f 360/151/112 359/32/114 362/33/177
f 359/32/114 363/31/178 362/33/177
f 363/31/178 359/32/114 364/27/179
f 364/27/179 365/24/180 363/31/178
f 365/24/180 364/27/179 366/25/181
f 363/31/178 365/24/180 367/30/182
f 368/23/183 365/24/180 366/25/181
f 365/24/180 368/23/183 369/26/149
f 369/26/149 370/28/184 365/24/180
f 370/28/184 367/30/182 365/24/180
f 370/28/184 369/26/149 371/29/147
f 300/90/114 372/93/178 301/92/177
f 300/90/114 373/79/185 372/93/178
f 375/77/180 374/81/182 372/93/178
f 375/77/180 372/93/178 373/79/185
f 374/81/182 375/77/180 376/80/184
f 375/77/180 377/58/149 376/80/184
f 378/62/147 376/80/184 377/58/149
f 377/58/149 375/77/180 379/55/142
f 380/78/181 379/55/142 375/77/180
f 375/77/180 373/79/185 380/78/181
f 300/90/114 297/88/80 381/91/97
f 384/155/186 383/156/29 382/157/187
f 383/156/29 384/155/186 385/158/188
f 386/159/139 384/155/186 382/157/187
f 384/155/186 386/159/139 387/160/189
f 387/160/189 388/161/190 384/155/186
f 389/162/191 384/155/186 388/161/190
f 384/155/186 389/162/191 385/158/188
f 390/163/192 393/164/193 392/165/121
f 391/166/194 393/164/193 390/163/192
f 392/165/121 393/164/193 394/167/43
f 393/164/193 391/166/194 395/168/195
f 396/169/196 394/167/43 393/164/193
f 395/168/195 396/169/196 393/164/193
f 394/167/43 396/169/196 397/170/197
f 396/169/196 398/171/198 397/170/197
f 396/169/196 395/168/195 399/172/163
f 399/172/163 400/173/199 396/169/196
f 398/171/198 396/169/196 401/174/200
f 401/174/200 396/169/196 400/173/199
f 405/175/193 403/176/121 402/177/192
f 404/178/194 405/175/193 402/177/192
f 403/176/121 405/175/193 406/179/43
f 405/175/193 404/178/194 407/180/195
f 405/175/193 408/181/197 406/179/43
f 407/180/195 409/182/196 405/175/193
f 408/181/197 405/175/193 409/182/196
f 409/182/196 407/180/195 410/183/163
f 411/184/199 409/182/196 410/183/163
f 412/185/198 408/181/197 409/182/196
f 409/182/196 413/186/200 412/185/198
f 409/182/196 411/184/199 413/186/200
f 417/187/201 415/188/139 416/189/112
f 415/188/139 417/187/201 414/190/202
f 418/191/190 417/187/201 416/189/112
f 419/192/203 420/193/191 418/191/190
f 417/187/201 418/191/190 420/193/191
f 420/193/191 419/192/203 421/194/182
f 422/195/204 417/187/201 420/193/191
f 423/196/205 420/193/191 421/194/182
f 420/193/191 423/196/205 422/195/204
f 417/187/201 422/195/204 424/197/72
f 417/187/201 424/197/72 425/198/206
f 414/190/202 417/187/201 425/198/206
f 426/199/203 389/162/191 388/161/190
f 427/200/204 385/158/188 389/162/191
f 428/201/207 427/200/204 389/162/191
f 389/162/191 426/199/203 429/202/208
f 389/162/191 429/202/208 428/201/207
f 430/55/147 432/56/209 431/57/210
f 433/58/211 432/56/209 430/55/147
f 433/58/211 434/61/212 432/56/209
f 435/62/213 434/61/212 433/58/211
f 436/59/79 431/57/210 432/56/209
f 434/61/212 436/59/79 432/56/209
f 431/57/210 436/59/79 437/60/214
f 434/61/212 438/63/215 436/59/79
f 438/63/215 439/64/71 436/59/79
f 438/63/215 440/65/30 439/64/71
f 444/99/216 442/53/51 443/100/217
f 442/53/51 444/99/216 445/52/211
f 446/98/218 445/52/211 444/99/216
f 445/52/211 446/98/218 447/51/219
f 444/99/216 448/101/84 446/98/218
f 443/100/217 448/101/84 444/99/216
f 446/98/218 448/101/84 449/97/220
f 448/101/84 443/100/217 450/102/39
f 451/95/93 449/97/220 448/101/84
f 452/94/161 449/97/220 451/95/93
f 454/32/221 455/31/222 453/33/163
f 456/30/223 455/31/222 457/24/224
f 455/31/222 454/32/221 458/27/172
f 458/27/172 457/24/224 455/31/222
f 459/28/225 456/30/223 457/24/224
f 457/24/224 458/27/172 460/25/167
f 461/26/211 459/28/225 457/24/224
f 459/28/225 461/26/211 462/29/51
f 457/24/224 463/23/226 461/26/211
f 463/23/226 457/24/224 460/25/167
f 464/74/51 465/83/216 466/75/227
f 467/82/228 466/75/227 465/83/216
f 466/75/227 467/82/228 468/76/219
f 465/83/216 464/74/51 469/84/229
f 470/85/84 467/82/228 465/83/216
f 469/84/229 470/85/84 465/83/216
f 467/82/228 470/85/84 471/86/158
f 470/85/84 469/84/229 472/87/82
f 473/88/93 471/86/158 470/85/84
f 471/86/158 473/88/93 474/89/230
f 474/89/230 476/92/163 475/152/162
f 476/92/163 474/89/230 477/90/221
f 478/93/199 476/92/163 477/90/221
f 477/90/221 474/89/230 479/91/87
f 473/88/93 479/91/87 474/89/230
f 478/93/199 477/90/221 480/79/172
f 482/77/224 481/81/223 478/93/199
f 482/77/224 478/93/199 480/79/172
f 481/81/223 482/77/224 483/80/225
f 484/62/51 483/80/225 485/58/211
f 485/58/211 483/80/225 482/77/224
f 485/58/211 482/77/224 486/55/226
f 486/55/226 482/77/224 487/78/231
f 482/77/224 480/79/172 487/78/231
f 488/23/232 489/34/209 490/35/210
f 489/34/209 488/23/232 491/26/211
f 491/26/211 492/36/212 489/34/209
f 492/36/212 491/26/211 493/29/213
f 492/36/212 494/37/79 489/34/209
f 489/34/209 494/37/79 490/35/210
f 494/37/79 492/36/212 495/38/215
f 494/37/79 496/39/151 490/35/210
f 495/38/215 497/40/71 494/37/79
f 502/52/211 500/50/233 501/51/147
f 500/50/233 502/52/211 503/49/234
f 503/49/234 498/48/182 500/50/233
f 504/53/235 503/49/234 502/52/211
f 498/48/182 503/49/234 505/46/236
f 503/49/234 504/53/235 506/54/237
f 503/49/234 507/47/67 505/46/236
f 506/54/237 507/47/67 503/49/234
f 499/44/238 505/46/236 508/45/239
f 508/45/239 505/46/236 507/47/67
f 497/40/71 495/38/215 509/41/30
f 508/45/239 510/43/72 499/44/238
f 512/66/239 441/154/240 511/67/238
f 513/68/241 512/66/239 511/67/238
f 512/66/239 513/68/241 515/69/67
f 514/71/242 516/70/234 513/68/241
f 516/70/234 515/69/67 513/68/241
f 516/70/234 514/71/242 517/73/233
f 519/75/227 517/73/233 518/76/147
f 517/73/233 519/75/227 516/70/234
f 520/74/235 516/70/234 519/75/227
f 516/70/234 520/74/235 521/72/237
f 515/69/67 516/70/234 521/72/237
usemtl Meshpart3Mtl
f 522/203/243 524/204/244 523/205/245
f 525/206/246 527/207/247 526/208/248
f 527/207/247 525/206/246 528/209/249
f 529/210/250 527/207/247 528/209/249
f 528/209/249 530/211/251 529/210/250
f 531/212/252 529/210/250 530/211/251
f 530/211/251 524/204/244 531/212/252
f 522/203/243 531/212/252 524/204/244
f 534/213/4 533/214/6 532/215/6
f 533/214/6 534/213/4 535/216/4
f 536/217/3 535/216/4 534/213/4
f 537/218/3 535/216/4 536/217/3
f 538/219/1 537/218/3 536/217/3
f 539/220/1 537/218/3 538/219/1
f 538/219/1 541/221/2 539/220/1
f 540/222/2 539/220/1 541/221/2
f 542/223/253 543/224/253 544/225/253
f 545/226/253 543/224/253 542/223/253
f 546/227/254 544/225/253 543/224/253
f 542/223/253 547/228/255 545/226/253
f 544/225/253 546/227/254 548/229/256
f 547/228/255 542/223/253 549/230/255
f 546/227/254 550/231/257 548/229/256
f 551/232/258 547/228/255 549/230/255
f 550/231/257 546/227/254 552/233/257
f 553/234/258 547/228/255 551/232/258
f 552/233/257 554/235/257 550/231/257
f 555/236/258 553/234/258 551/232/258
f 554/235/257 556/237/257 550/231/257
f 553/234/258 555/236/258 557/238/258
f 554/235/257 558/239/259 556/237/257
f 555/236/258 559/240/260 557/238/258
f 556/237/257 558/239/259 560/241/261
f 559/240/260 555/236/258 561/242/262
f 558/239/259 562/243/263 560/241/261
f 559/240/260 561/242/262 563/244/263
f 562/243/263 558/239/259 564/245/263
f 565/246/263 559/240/260 563/244/263
f 565/246/263 562/243/263 564/245/263
f 562/243/263 565/246/263 563/244/263
f 567/247/264 566/248/265 569/227/266
f 569/227/266 568/249/267 567/247/264
f 568/249/267 569/227/266 570/224/268
f 569/227/266 566/248/265 571/233/269
f 572/226/270 568/249/267 570/224/268
f 566/248/265 573/250/244 571/233/269
f 574/235/271 571/233/269 573/250/244
f 573/250/244 575/239/272 574/235/271
f 576/251/273 568/249/267 572/226/270
f 572/226/270 577/228/274 576/251/273
f 578/252/275 576/251/273 577/228/274
f 577/228/274 579/253/276 578/252/275
f 579/253/276 577/228/274 580/234/277
f 581/238/278 579/253/276 580/234/277
f 579/253/276 581/238/278 582/254/279
f 583/240/280 582/254/279 581/238/278
f 584/255/281 582/254/279 583/240/280
f 583/240/280 585/256/246 584/255/281
f 585/256/246 583/240/280 586/246/282
f 587/245/283 585/256/246 586/246/282
f 588/257/249 585/256/246 587/245/283
f 575/239/272 588/257/249 587/245/283
f 588/257/249 575/239/272 589/258/284
f 575/239/272 573/250/244 589/258/284
f 590/210/285 591/207/243 592/209/265
f 593/212/286 590/210/285 594/211/264
f 590/210/285 592/209/265 594/211/264
f 593/212/286 594/211/264 595/204/267
f 596/220/287 598/218/9 597/219/287
f 599/217/9 597/219/287 598/218/9
f 598/218/9 600/216/10 599/217/9
f 601/213/10 599/217/9 600/216/10
f 603/207/288 602/208/289 604/206/267
f 603/207/288 604/206/267 605/209/290
f 605/209/290 606/210/291 603/207/288
f 606/210/291 605/209/290 607/211/292
f 607/211/292 608/212/293 606/210/291
f 608/212/293 607/211/292 609/204/276
f 609/204/276 610/203/294 608/212/293
f 609/204/276 611/205/279 610/203/294
f 612/220/16 613/221/17 614/222/17
f 613/221/17 612/220/16 615/219/16
f 616/218/13 615/219/16 612/220/16
f 617/217/13 615/219/16 616/218/13
f 618/216/11 617/217/13 616/218/13
f 619/213/11 617/217/13 618/216/11
f 618/216/11 620/214/8 619/213/11
f 621/215/8 619/213/11 620/214/8
f 622/233/295 623/235/295 624/231/295
f 624/231/295 625/227/296 622/233/295
f 623/235/295 626/237/295 624/231/295
f 625/227/296 624/231/295 627/229/297
f 623/235/295 628/239/298 626/237/295
f 629/225/299 625/227/296 627/229/297
f 626/237/295 628/239/298 630/241/298
f 625/227/296 629/225/299 631/224/299
f 628/239/298 632/243/300 630/241/298
f 633/223/299 631/224/299 629/225/299
f 632/243/300 628/239/298 634/245/300
f 635/226/299 631/224/299 633/223/299
f 636/246/300 632/243/300 634/245/300
f 633/223/299 637/228/301 635/226/299
f 632/243/300 636/246/300 638/244/300
f 637/228/301 633/223/299 639/230/302
f 636/246/300 640/240/303 638/244/300
f 641/232/304 637/228/301 639/230/302
f 640/240/303 642/242/305 638/244/300
f 643/234/304 637/228/301 641/232/304
f 640/240/303 644/236/304 642/242/305
f 644/236/304 643/234/304 641/232/304
f 644/236/304 640/240/303 645/238/304
f 643/234/304 644/236/304 645/238/304
f 648/227/306 647/249/243 646/247/285
f 647/249/243 648/227/306 649/224/307
f 650/226/308 647/249/243 649/224/307
f 646/247/285 651/248/286 648/227/306
f 648/227/306 651/248/286 652/233/309
f 651/248/286 653/250/288 652/233/309
f 654/235/310 652/233/309 653/250/288
f 653/250/288 655/239/311 654/235/310
f 655/239/311 653/250/288 656/258/312
f 657/257/313 655/239/311 656/258/312
f 655/239/311 657/257/313 658/245/314
f 657/257/313 659/256/294 658/245/314
f 658/245/314 659/256/294 660/246/315
f 659/256/294 661/240/316 660/246/315
f 661/240/316 659/256/294 662/255/317
f 662/255/317 663/254/248 661/240/316
f 661/240/316 663/254/248 664/238/318
f 665/253/247 664/238/318 663/254/248
f 664/238/318 665/253/247 666/234/319
f 665/253/247 667/228/320 666/234/319
f 667/228/320 665/253/247 668/252/321
f 668/252/321 669/251/322 667/228/320
f 650/226/308 667/228/320 669/251/322
f 669/251/322 647/249/243 650/226/308
f 671/209/323 672/210/317 670/207/294
f 671/209/323 673/211/281 672/210/317
f 673/211/281 675/212/324 672/210/317
f 673/211/281 674/204/246 675/212/324
f 678/217/18 677/216/325 676/213/325
f 677/216/325 678/217/18 679/218/18
f 680/219/19 679/218/18 678/217/18
f 679/218/18 680/219/19 681/220/19
f 684/259/326 682/260/327 683/261/328
f 682/260/327 684/259/326 685/262/329
f 686/263/330 685/262/329 684/259/326
f 687/264/331 682/260/327 685/262/329
f 685/262/329 686/263/330 688/265/332
f 689/266/333 685/262/329 688/265/332
f 687/264/331 685/262/329 689/266/333
f 689/266/333 688/265/332 690/267/334
f 691/268/335 689/266/333 690/267/334
f 692/269/336 687/264/331 689/266/333
f 689/266/333 691/268/335 692/269/336
f 693/270/337 692/269/336 691/268/335
f 692/269/336 693/270/337 694/271/338
f 687/264/331 692/269/336 695/272/339
f 694/271/338 695/272/339 692/269/336
f 695/272/339 694/271/338 696/273/340
f 697/274/341 698/275/342 699/276/343
f 698/275/342 697/274/341 700/277/344
f 698/275/342 701/278/345 699/276/343
f 701/278/345 698/275/342 702/279/346
f 705/280/347 704/281/335 703/282/348
f 703/282/348 706/283/349 705/280/347
f 703/282/348 707/284/350 706/283/349
f 707/284/350 703/282/348 708/285/351
f 711/286/352 712/287/353 710/288/332
f 712/287/353 711/286/352 713/289/13
f 714/290/354 711/286/352 709/291/355
f 711/286/352 714/290/354 713/289/13
f 715/292/356 712/287/353 713/289/13
f 714/290/354 715/292/356 713/289/13
f 712/287/353 715/292/356 716/293/335
f 715/292/356 714/290/354 717/294/351
f 718/295/341 720/296/357 719/297/358
f 720/296/357 718/295/341 721/298/359
f 721/298/359 722/299/360 720/296/357
f 723/300/361 721/298/359 718/295/341
f 722/299/360 721/298/359 724/301/355
f 727/302/362 728/303/363 729/304/364
f 727/302/362 729/304/364 730/305/365
f 730/305/365 723/300/361 727/302/362
f 730/305/365 729/304/364 726/306/350
f 723/300/361 730/305/365 731/307/366
f 721/298/359 723/300/361 731/307/366
f 731/307/366 724/301/355 721/298/359
f 724/301/355 731/307/366 725/308/367
f 732/309/351 731/307/366 730/305/365
f 730/305/365 726/306/350 732/309/351
f 731/307/366 732/309/351 725/308/367
f 737/282/352 733/280/368 734/281/355
f 735/284/369 737/282/352 736/285/332
f 733/280/368 737/282/352 738/283/370
f 737/282/352 735/284/369 738/283/370
f 739/274/339 740/277/340 741/275/371
f 741/275/371 742/276/372 739/274/339
f 741/275/371 743/278/373 742/276/372
f 743/278/373 741/275/371 744/279/374
f 748/289/375 745/310/341 746/311/376
f 748/289/375 746/311/376 747/312/345
f 745/310/341 748/289/375 749/313/361
f 747/312/345 750/314/377 748/289/375
f 751/315/339 748/289/375 750/314/377
f 748/289/375 751/315/339 752/316/378
f 748/289/375 752/316/378 753/317/362
f 753/317/362 749/313/361 748/289/375
